<svg width="20" height="20" viewBox="0 0 20 20" fill="none" xmlns="http://www.w3.org/2000/svg">
<path d="M17 2H16V1C16 0.4 15.6 0 15 0C14.4 0 14 0.4 14 1V2H6V1C6 0.4 5.6 0 5 0C4.4 0 4 0.4 4 1V2H3C1.3 2 0 3.3 0 5V6H20V5C20 3.3 18.7 2 17 2ZM0 17C0 18.7 1.3 20 3 20H17C18.7 20 20 18.7 20 17V8H0V17ZM15 10C15.6 10 16 10.4 16 11C16 11.6 15.6 12 15 12C14.4 12 14 11.6 14 11C14 10.4 14.4 10 15 10ZM15 14C15.6 14 16 14.4 16 15C16 15.6 15.6 16 15 16C14.4 16 14 15.6 14 15C14 14.4 14.4 14 15 14ZM10 10C10.6 10 11 10.4 11 11C11 11.6 10.6 12 10 12C9.4 12 9 11.6 9 11C9 10.4 9.4 10 10 10ZM10 14C10.6 14 11 14.4 11 15C11 15.6 10.6 16 10 16C9.4 16 9 15.6 9 15C9 14.4 9.4 14 10 14ZM5 10C5.6 10 6 10.4 6 11C6 11.6 5.6 12 5 12C4.4 12 4 11.6 4 11C4 10.4 4.4 10 5 10ZM5 14C5.6 14 6 14.4 6 15C6 15.6 5.6 16 5 16C4.4 16 4 15.6 4 15C4 14.4 4.4 14 5 14Z" fill="#86888A"/>
</svg>
