<svg width="20" height="16" viewBox="0 0 20 16" fill="none" xmlns="http://www.w3.org/2000/svg">
<path d="M19.375 8C19.375 8.29837 19.2564 8.58451 19.0454 8.79549C18.8345 9.00647 18.5483 9.125 18.25 9.125H4.4687L9.29683 13.9531C9.40171 14.0576 9.48493 14.1818 9.54171 14.3186C9.59849 14.4553 9.62772 14.6019 9.62772 14.75C9.62772 14.8981 9.59849 15.0447 9.54171 15.1814C9.48493 15.3182 9.40171 15.4424 9.29683 15.5469C9.08453 15.7564 8.79825 15.8739 8.49995 15.8739C8.20166 15.8739 7.91538 15.7564 7.70308 15.5469L0.95308 8.79687C0.8482 8.69236 0.764983 8.56816 0.708202 8.43142C0.651421 8.29467 0.622192 8.14806 0.622192 8C0.622192 7.85193 0.651421 7.70532 0.708202 7.56858C0.764983 7.43183 0.8482 7.30764 0.95308 7.20312L7.70308 0.453123C7.91442 0.241779 8.20107 0.123047 8.49995 0.123047C8.64795 0.123047 8.79449 0.152196 8.93122 0.208831C9.06795 0.265466 9.19218 0.348476 9.29683 0.453123C9.40148 0.557771 9.48449 0.682005 9.54112 0.818733C9.59776 0.955461 9.62691 1.10201 9.62691 1.25C9.62691 1.39799 9.59776 1.54454 9.54112 1.68126C9.48449 1.81799 9.40148 1.94223 9.29683 2.04687L4.4687 6.875H18.25C18.5483 6.875 18.8345 6.99353 19.0454 7.2045C19.2564 7.41548 19.375 7.70163 19.375 8Z" fill="#363637"/>
</svg>
