<svg width="24" height="24" viewBox="0 0 24 24" fill="none" xmlns="http://www.w3.org/2000/svg">
<path fill-rule="evenodd" clip-rule="evenodd" d="M17 15C17.1978 15 17.391 14.9413 17.5555 14.8314C17.7199 14.7215 17.848 14.5654 17.9237 14.3827C17.9993 14.2 18.0192 13.999 17.9806 13.805C17.942 13.611 17.8468 13.4329 17.707 13.293L12.707 8.29303C12.5195 8.10556 12.2652 8.00024 12 8.00024C11.7348 8.00024 11.4805 8.10556 11.293 8.29303L6.293 13.293C6.15319 13.4329 6.05798 13.611 6.01942 13.805C5.98085 13.999 6.00065 14.2 6.07632 14.3827C6.15199 14.5654 6.28013 14.7215 6.44454 14.8314C6.60895 14.9413 6.80225 15 7 15H17Z" fill="#D6EBFB"/>
</svg>
