<svg width="24" height="24" viewBox="0 0 24 24" fill="none" xmlns="http://www.w3.org/2000/svg">
<path fill-rule="evenodd" clip-rule="evenodd" d="M7 9C6.80225 9.00004 6.60895 9.05871 6.44454 9.1686C6.28013 9.27848 6.15199 9.43465 6.07632 9.61735C6.00065 9.80005 5.98085 10.0011 6.01942 10.195C6.05798 10.389 6.15319 10.5671 6.293 10.707L11.293 15.707C11.4805 15.8945 11.7348 15.9998 12 15.9998C12.2652 15.9998 12.5195 15.8945 12.707 15.707L17.707 10.707C17.8468 10.5671 17.942 10.389 17.9806 10.195C18.0192 10.0011 17.9993 9.80005 17.9237 9.61735C17.848 9.43465 17.7199 9.27848 17.5555 9.1686C17.391 9.05871 17.1978 9.00004 17 9H7Z" fill="#86888A"/>
</svg>
