<svg width="22" height="22" viewBox="0 0 22 22" fill="none" xmlns="http://www.w3.org/2000/svg">
<path fill-rule="evenodd" clip-rule="evenodd" d="M1.17881 2.36568H3.37298L3.96867 4.63673C3.9735 4.65472 3.97874 4.6726 3.98439 4.69035L5.50584 12.3315C5.50999 12.3728 5.51629 12.4138 5.5247 12.4545L6.18484 15.7664V15.7712C6.27542 16.2165 6.51655 16.6167 6.86741 16.9041C7.21827 17.1915 7.65731 17.3484 8.11023 17.3483H17.6822C17.9948 17.3483 18.2947 17.2237 18.5157 17.0018C18.7368 16.78 18.861 16.4792 18.861 16.1655C18.861 15.8517 18.7368 15.5509 18.5157 15.3291C18.2947 15.1072 17.9948 14.9826 17.6822 14.9826H8.43244L8.0395 13.0112H19.037C19.092 13.0112 19.2492 13.016 19.3938 12.9923C19.6531 12.9483 19.8973 12.8404 20.1047 12.6783C20.3121 12.5161 20.4762 12.3048 20.5821 12.0634C20.6669 11.8678 20.7094 11.6202 20.7235 11.5382L20.7282 11.5161L21.9715 5.42528L21.9746 5.40951C22.0157 5.18265 22.0068 4.94951 21.9485 4.72648C21.8901 4.50345 21.7838 4.29594 21.637 4.11856C21.4902 3.94118 21.3064 3.79822 21.0987 3.69973C20.8909 3.60125 20.6641 3.54963 20.4343 3.54851H6.12039L5.59543 1.53769C5.49728 1.10101 5.25394 0.710848 4.90544 0.431379C4.55694 0.15191 4.12402 -0.000223622 3.67789 2.46718e-07H1.17881C0.866172 2.46718e-07 0.566336 0.12462 0.345266 0.346446C0.124196 0.568271 0 0.86913 0 1.18284C0 1.49655 0.124196 1.79741 0.345266 2.01923C0.566336 2.24106 0.866172 2.36568 1.17881 2.36568ZM18.2795 20.1871C18.2795 19.7065 18.0892 19.2456 17.7505 18.9058C17.4118 18.5659 16.9525 18.375 16.4735 18.375C15.9945 18.375 15.5352 18.5659 15.1965 18.9058C14.8578 19.2456 14.6676 19.7065 14.6676 20.1871C14.6814 20.6582 14.8777 21.1054 15.2147 21.4338C15.5517 21.7621 16.003 21.9458 16.4727 21.9458C16.9425 21.9458 17.3937 21.7621 17.7307 21.4338C18.0678 21.1054 18.264 20.6582 18.2779 20.1871H18.2795ZM8.61319 18.3766C8.85473 18.3694 9.09524 18.411 9.32048 18.4988C9.54572 18.5866 9.75111 18.7189 9.92448 18.8878C10.0978 19.0567 10.2357 19.2588 10.3298 19.4821C10.4239 19.7054 10.4724 19.9454 10.4724 20.1879C10.4724 20.4304 10.4239 20.6704 10.3298 20.8937C10.2357 21.117 10.0978 21.3191 9.92448 21.488C9.75111 21.6569 9.54572 21.7892 9.32048 21.877C9.09524 21.9648 8.85473 22.0064 8.61319 21.9992C8.14365 21.9853 7.69799 21.7884 7.37077 21.4502C7.04355 21.112 6.86052 20.6592 6.86052 20.1879C6.86052 19.7165 7.04355 19.2637 7.37077 18.9256C7.69799 18.5874 8.14365 18.3905 8.61319 18.3766Z" fill="#86888A"/>
</svg>
