<svg width="20" height="20" viewBox="0 0 20 20" fill="none" xmlns="http://www.w3.org/2000/svg">
<path d="M10 0C4.4774 0 0 4.4774 0 10C0 15.5226 4.4774 20 10 20C15.5226 20 20 15.5226 20 10C20 4.4774 15.5226 0 10 0ZM14.6154 11.5385H10C9.79599 11.5385 9.60033 11.4574 9.45607 11.3132C9.31181 11.1689 9.23077 10.9732 9.23077 10.7692V3.84615C9.23077 3.64214 9.31181 3.44648 9.45607 3.30223C9.60033 3.15797 9.79599 3.07692 10 3.07692C10.204 3.07692 10.3997 3.15797 10.5439 3.30223C10.6882 3.44648 10.7692 3.64214 10.7692 3.84615V10H14.6154C14.8194 10 15.0151 10.081 15.1593 10.2253C15.3036 10.3696 15.3846 10.5652 15.3846 10.7692C15.3846 10.9732 15.3036 11.1689 15.1593 11.3132C15.0151 11.4574 14.8194 11.5385 14.6154 11.5385Z" fill="#86888A"/>
</svg>
