<svg width="22" height="16" viewBox="0 0 22 16" fill="none" xmlns="http://www.w3.org/2000/svg">
<path d="M20.9 0H1.1C0.808262 0 0.528472 0.120408 0.322183 0.334735C0.115892 0.549063 0 0.839753 0 1.14286V5.71429H0.9823C2.0779 5.71429 3.0943 6.49257 3.2703 7.616C3.32392 7.94404 3.30799 8.28029 3.22362 8.60128C3.13926 8.92226 2.98849 9.22026 2.78184 9.47446C2.57519 9.72866 2.31764 9.93295 2.02715 10.0731C1.73667 10.2132 1.42026 10.2858 1.1 10.2857H0V14.8571C0 15.1602 0.115892 15.4509 0.322183 15.6653C0.528472 15.8796 0.808262 16 1.1 16H20.9C21.1917 16 21.4715 15.8796 21.6778 15.6653C21.8841 15.4509 22 15.1602 22 14.8571V10.2857H20.9C20.5797 10.2858 20.2633 10.2132 19.9728 10.0731C19.6824 9.93295 19.4248 9.72866 19.2182 9.47446C19.0115 9.22026 18.8607 8.92226 18.7764 8.60128C18.692 8.28029 18.6761 7.94404 18.7297 7.616C18.9057 6.49257 19.9221 5.71429 21.0177 5.71429H22V1.14286C22 0.839753 21.8841 0.549063 21.6778 0.334735C21.4715 0.120408 21.1917 0 20.9 0ZM9.9 13.7143H7.7V11.4286H9.9V13.7143ZM9.9 9.14286H7.7V6.85714H9.9V9.14286ZM9.9 4.57143H7.7V2.28571H9.9V4.57143Z" fill="#86888A"/>
</svg>
