<svg width="24" height="24" viewBox="0 0 24 24" fill="none" xmlns="http://www.w3.org/2000/svg">
<path d="M9.5 1C9.10218 1 8.72064 1.15804 8.43934 1.43934C8.15804 1.72064 8 2.10218 8 2.5V3.5C8 3.89782 8.15804 4.27936 8.43934 4.56066C8.72064 4.84196 9.10218 5 9.5 5H14.5C14.8978 5 15.2794 4.84196 15.5607 4.56066C15.842 4.27936 16 3.89782 16 3.5V2.5C16 2.10218 15.842 1.72064 15.5607 1.43934C15.2794 1.15804 14.8978 1 14.5 1H9.5Z" fill="#86888A"/>
<path fill-rule="evenodd" clip-rule="evenodd" d="M5.88889 3C4.49111 3.07795 3.60889 3.30065 2.97667 3.93536C2 4.91415 2 6.48867 2 9.63772V16.3189C2 19.469 2 21.0435 2.97667 22.0223C3.95222 23 5.52444 23 8.66667 23H15.3333C18.4756 23 20.0478 23 21.0233 22.0223C22 21.0424 22 19.469 22 16.3189V9.63772C22 6.48867 22 4.91415 21.0233 3.93536C20.3911 3.30065 19.5089 3.07795 18.1111 3V3.51556C18.1111 4.40154 17.7599 5.25122 17.1348 5.8777C16.5097 6.50418 15.6618 6.85613 14.7778 6.85613H9.22222C8.33817 6.85613 7.49032 6.50418 6.8652 5.8777C6.24008 5.25122 5.88889 4.40154 5.88889 3.51556V3ZM6.44444 9.36156C6.22343 9.36156 6.01147 9.44955 5.85519 9.60617C5.69891 9.76279 5.61111 9.97521 5.61111 10.1967C5.61111 10.4182 5.69891 10.6306 5.85519 10.7872C6.01147 10.9439 6.22343 11.0318 6.44444 11.0318H7C7.22101 11.0318 7.43298 10.9439 7.58926 10.7872C7.74554 10.6306 7.83333 10.4182 7.83333 10.1967C7.83333 9.97521 7.74554 9.76279 7.58926 9.60617C7.43298 9.44955 7.22101 9.36156 7 9.36156H6.44444ZM10.3333 9.36156C10.1123 9.36156 9.90036 9.44955 9.74408 9.60617C9.5878 9.76279 9.5 9.97521 9.5 10.1967C9.5 10.4182 9.5878 10.6306 9.74408 10.7872C9.90036 10.9439 10.1123 11.0318 10.3333 11.0318H17.5556C17.7766 11.0318 17.9885 10.9439 18.1448 10.7872C18.3011 10.6306 18.3889 10.4182 18.3889 10.1967C18.3889 9.97521 18.3011 9.76279 18.1448 9.60617C17.9885 9.44955 17.7766 9.36156 17.5556 9.36156H10.3333ZM6.44444 13.2589C6.22343 13.2589 6.01147 13.3469 5.85519 13.5035C5.69891 13.6601 5.61111 13.8725 5.61111 14.094C5.61111 14.3155 5.69891 14.528 5.85519 14.6846C6.01147 14.8412 6.22343 14.9292 6.44444 14.9292H7C7.22101 14.9292 7.43298 14.8412 7.58926 14.6846C7.74554 14.528 7.83333 14.3155 7.83333 14.094C7.83333 13.8725 7.74554 13.6601 7.58926 13.5035C7.43298 13.3469 7.22101 13.2589 7 13.2589H6.44444ZM10.3333 13.2589C10.1123 13.2589 9.90036 13.3469 9.74408 13.5035C9.5878 13.6601 9.5 13.8725 9.5 14.094C9.5 14.3155 9.5878 14.528 9.74408 14.6846C9.90036 14.8412 10.1123 14.9292 10.3333 14.9292H17.5556C17.7766 14.9292 17.9885 14.8412 18.1448 14.6846C18.3011 14.528 18.3889 14.3155 18.3889 14.094C18.3889 13.8725 18.3011 13.6601 18.1448 13.5035C17.9885 13.3469 17.7766 13.2589 17.5556 13.2589H10.3333ZM6.44444 17.1562C6.22343 17.1562 6.01147 17.2442 5.85519 17.4008C5.69891 17.5575 5.61111 17.7699 5.61111 17.9914C5.61111 18.2129 5.69891 18.4253 5.85519 18.5819C6.01147 18.7385 6.22343 18.8265 6.44444 18.8265H7C7.22101 18.8265 7.43298 18.7385 7.58926 18.5819C7.74554 18.4253 7.83333 18.2129 7.83333 17.9914C7.83333 17.7699 7.74554 17.5575 7.58926 17.4008C7.43298 17.2442 7.22101 17.1562 7 17.1562H6.44444ZM10.3333 17.1562C10.1123 17.1562 9.90036 17.2442 9.74408 17.4008C9.5878 17.5575 9.5 17.7699 9.5 17.9914C9.5 18.2129 9.5878 18.4253 9.74408 18.5819C9.90036 18.7385 10.1123 18.8265 10.3333 18.8265H17.5556C17.7766 18.8265 17.9885 18.7385 18.1448 18.5819C18.3011 18.4253 18.3889 18.2129 18.3889 17.9914C18.3889 17.7699 18.3011 17.5575 18.1448 17.4008C17.9885 17.2442 17.7766 17.1562 17.5556 17.1562H10.3333Z" fill="#86888A"/>
</svg>
