<svg width="22" height="16" viewBox="0 0 22 16" fill="none" xmlns="http://www.w3.org/2000/svg">
<path d="M17.6 8.00499C17.6 8.58366 18.095 9.05712 18.7 9.05712H20.9C21.505 9.05712 22 8.58366 22 8.00499C22 7.42633 21.505 6.95287 20.9 6.95287H18.7C18.095 6.95287 17.6 7.42633 17.6 8.00499ZM16.049 13.0762C15.9626 13.184 15.8997 13.3072 15.864 13.4386C15.8282 13.5701 15.8204 13.707 15.8409 13.8413C15.8614 13.9757 15.9098 14.1048 15.9834 14.2209C16.0569 14.3371 16.154 14.438 16.269 14.5176C16.852 14.928 17.468 15.3698 18.051 15.7907C18.535 16.1379 19.217 16.0432 19.569 15.5803C19.569 15.5698 19.58 15.5698 19.58 15.5592C19.6664 15.4505 19.7292 15.3264 19.765 15.1942C19.8007 15.062 19.8085 14.9243 19.788 14.7892C19.7676 14.654 19.7192 14.5242 19.6457 14.4071C19.5722 14.29 19.4751 14.1881 19.36 14.1073C18.777 13.6865 18.161 13.2446 17.589 12.8342C17.4735 12.7526 17.3423 12.6935 17.2029 12.6604C17.0635 12.6273 16.9186 12.6209 16.7766 12.6414C16.6346 12.6619 16.4982 12.709 16.3752 12.78C16.2522 12.851 16.1451 12.9445 16.06 13.0552C16.06 13.0657 16.049 13.0762 16.049 13.0762ZM19.591 0.440236C19.591 0.429714 19.58 0.429714 19.58 0.419193C19.4953 0.309352 19.3887 0.216681 19.2663 0.146553C19.1439 0.0764245 19.0082 0.0302344 18.867 0.0106607C18.7258 -0.00891297 18.5819 -0.0014806 18.4437 0.0325264C18.3055 0.0665334 18.1758 0.126439 18.062 0.208769C17.479 0.629618 16.852 1.07151 16.28 1.49236C15.796 1.83956 15.708 2.49187 16.071 2.94429C16.071 2.95481 16.082 2.95481 16.082 2.96533C16.445 3.42826 17.116 3.52295 17.6 3.17575C18.183 2.76543 18.799 2.31301 19.382 1.89216C19.855 1.55549 19.943 0.903169 19.591 0.440236ZM6.6 4.84863H2.2C0.99 4.84863 0 5.79554 0 6.95287V9.05712C0 10.2145 0.99 11.1614 2.2 11.1614H3.3V14.3177C3.3 14.8964 3.795 15.3699 4.4 15.3699C5.005 15.3699 5.5 14.8964 5.5 14.3177V11.1614H6.6L12.1 14.3177V1.69226L6.6 4.84863ZM14.85 8.00499C14.85 6.60567 14.212 5.34313 13.2 4.48038V11.5191C14.212 10.6669 14.85 9.40432 14.85 8.00499Z" fill="#86888A"/>
</svg>
