<svg width="14" height="14" viewBox="0 0 14 14" fill="none" xmlns="http://www.w3.org/2000/svg">
<path d="M7 13.75C6.72679 13.75 6.49793 13.6574 6.31343 13.4723C6.12829 13.2878 6.03571 13.0589 6.03571 12.7857V7.96429H1.21429C0.941071 7.96429 0.711893 7.87171 0.52675 7.68657C0.34225 7.50207 0.25 7.27321 0.25 7C0.25 6.72679 0.34225 6.49761 0.52675 6.31246C0.711893 6.12796 0.941071 6.03571 1.21429 6.03571H6.03571V1.21429C6.03571 0.941071 6.12829 0.711893 6.31343 0.52675C6.49793 0.34225 6.72679 0.25 7 0.25C7.27321 0.25 7.50239 0.34225 7.68754 0.52675C7.87204 0.711893 7.96429 0.941071 7.96429 1.21429V6.03571H12.7857C13.0589 6.03571 13.2878 6.12796 13.4723 6.31246C13.6574 6.49761 13.75 6.72679 13.75 7C13.75 7.27321 13.6574 7.50207 13.4723 7.68657C13.2878 7.87171 13.0589 7.96429 12.7857 7.96429H7.96429V12.7857C7.96429 13.0589 7.87204 13.2878 7.68754 13.4723C7.50239 13.6574 7.27321 13.75 7 13.75Z" fill="#D6EBFB"/>
</svg>
