<svg width="22" height="18" viewBox="0 0 22 18" fill="none" xmlns="http://www.w3.org/2000/svg">
<path fill-rule="evenodd" clip-rule="evenodd" d="M20.4286 6H1.57143V15.75C1.57143 16.347 1.81972 16.9193 2.26207 17.3408C2.70364 17.763 3.30314 18 3.92857 18C7.216 18 14.784 18 18.0714 18C18.6969 18 19.2964 17.763 19.7379 17.3408C20.1803 16.9193 20.4286 16.347 20.4286 15.75V6ZM8.64286 9H13.3571C13.7909 9 14.1429 8.664 14.1429 8.25C14.1429 7.836 13.7909 7.5 13.3571 7.5H8.64286C8.20914 7.5 7.85714 7.836 7.85714 8.25C7.85714 8.664 8.20914 9 8.64286 9ZM1.57143 4.5H20.4286C21.2968 4.5 22 3.82875 22 3V1.5C22 0.67125 21.2968 0 20.4286 0C17.1804 0 4.81957 0 1.57143 0C0.703214 0 0 0.67125 0 1.5V3C0 3.82875 0.703214 4.5 1.57143 4.5Z" fill="#86888A"/>
</svg>
