<svg width="20" height="22" viewBox="0 0 20 22" fill="none" xmlns="http://www.w3.org/2000/svg">
<path d="M14.4444 13.2C15.9179 13.2 17.3309 13.7795 18.3728 14.8109C19.4147 15.8424 20 17.2413 20 18.7V19.8C20 20.3835 19.7659 20.9431 19.3491 21.3556C18.9324 21.7682 18.3671 22 17.7778 22H2.22222C1.63285 22 1.06762 21.7682 0.650874 21.3556C0.234126 20.9431 0 20.3835 0 19.8V18.7C0 17.2413 0.585316 15.8424 1.62718 14.8109C2.66905 13.7795 4.08213 13.2 5.55556 13.2H14.4444ZM10 0C11.4734 0 12.8865 0.579463 13.9284 1.61091C14.9702 2.64236 15.5556 4.04131 15.5556 5.5C15.5556 6.95869 14.9702 8.35764 13.9284 9.38909C12.8865 10.4205 11.4734 11 10 11C8.52658 11 7.1135 10.4205 6.07163 9.38909C5.02976 8.35764 4.44444 6.95869 4.44444 5.5C4.44444 4.04131 5.02976 2.64236 6.07163 1.61091C7.1135 0.579463 8.52658 0 10 0Z" fill="#86888A"/>
</svg>
