<svg width="20" height="20" viewBox="0 0 20 20" fill="none" xmlns="http://www.w3.org/2000/svg">
<path d="M10 20C7.34784 20 4.8043 18.9464 2.92893 17.0711C1.05357 15.1957 0 12.6522 0 10C0 7.34784 1.05357 4.8043 2.92893 2.92893C4.8043 1.05357 7.34784 0 10 0C12.6522 0 15.1957 1.05357 17.0711 2.92893C18.9464 4.8043 20 7.34784 20 10C20 12.6522 18.9464 15.1957 17.0711 17.0711C15.1957 18.9464 12.6522 20 10 20ZM10.315 3.835C10.2442 3.7904 10.1648 3.76123 10.082 3.7494C9.99912 3.73757 9.91473 3.74335 9.83427 3.76635C9.75382 3.78935 9.67913 3.82907 9.61507 3.8829C9.55101 3.93673 9.49902 4.00346 9.4625 4.07875L7.9625 7.11875L4.6075 7.60625C4.49662 7.62151 4.39227 7.66766 4.30639 7.73944C4.22051 7.81122 4.15657 7.90572 4.12188 8.01214C4.08719 8.11856 4.08315 8.23259 4.11023 8.34119C4.13731 8.44979 4.19441 8.54858 4.275 8.62625L6.705 10.9913L6.13 14.3337C6.11155 14.4436 6.1241 14.5564 6.16626 14.6595C6.20842 14.7626 6.27851 14.852 6.36864 14.9174C6.45878 14.9829 6.56538 15.0219 6.67648 15.0301C6.78757 15.0383 6.89875 15.0153 6.9975 14.9637L10 13.3862L13 14.9625C13.0987 15.0145 13.21 15.0379 13.3213 15.0299C13.4326 15.022 13.5395 14.983 13.6298 14.9174C13.7201 14.8519 13.7902 14.7623 13.8322 14.6589C13.8742 14.5555 13.8865 14.4425 13.8675 14.3325L13.295 10.9913L15.7225 8.625C15.8018 8.54696 15.8577 8.44838 15.8841 8.34033C15.9104 8.23227 15.9062 8.119 15.8718 8.01323C15.8374 7.90745 15.7742 7.81334 15.6894 7.74146C15.6045 7.66958 15.5012 7.62276 15.3912 7.60625L12.035 7.11875L10.535 4.07875C10.4862 3.97836 10.4099 3.89385 10.315 3.835Z" fill="#86888A"/>
</svg>
